<?xml version="1.0" encoding="UTF-8" standalone="no"?>
<!DOCTYPE svg PUBLIC "-//W3C//DTD SVG 1.1//EN" "http://www.w3.org/Graphics/SVG/1.1/DTD/svg11.dtd">
<svg version="1.1" xmlns="http://www.w3.org/2000/svg" xmlns:xlink="http://www.w3.org/1999/xlink" preserveAspectRatio="xMidYMid meet" viewBox="0 0 640 640" width="640" height="640"><defs><path d="M197.39 198.19L195.9 200.12L194.42 202.07L192.95 204.02L191.51 205.99L190.08 207.97L188.66 209.96L187.26 211.96L185.88 213.97L184.51 215.99L183.16 218.02L181.83 220.06L180.51 222.11L179.21 224.17L177.92 226.25L176.65 228.33L175.4 230.42L174.16 232.52L172.94 234.63L171.74 236.75L170.56 238.88L169.39 241.02L168.24 243.17L167.1 245.32L165.98 247.49L164.88 249.66L163.8 251.85L162.73 254.04L161.68 256.24L160.65 258.45L159.64 260.67L158.64 262.89L157.66 265.13L156.7 267.37L155.75 269.62L154.83 271.88L153.92 274.15L153.02 276.42L152.15 278.7L151.29 280.99L150.46 283.29L203.71 283.29L203.71 304.34L143.53 304.34L142.88 306.57L142.25 308.81L141.64 311.05L141.04 313.29L140.46 315.53L139.89 317.78L139.33 320.04L138.79 322.29L138.26 324.55L137.75 326.81L137.25 329.08L136.77 331.35L136.3 333.62L135.85 335.89L135.41 338.17L134.99 340.45L134.58 342.73L134.18 345.01L133.8 347.3L133.44 349.59L133.09 351.88L132.75 354.17L132.43 356.47L132.12 358.76L131.83 361.06L131.55 363.37L131.29 365.67L131.04 367.97L130.81 370.28L130.59 372.59L130.39 374.9L130.2 377.21L130.03 379.53L129.87 381.84L129.72 384.16L129.59 386.47L129.48 388.79L129.38 391.11L129.3 393.43L129.23 395.75L213.09 395.75L213.26 396.3L213.43 396.84L213.6 397.39L213.77 397.93L213.94 398.47L214.11 399.01L214.28 399.56L214.46 400.1L214.63 400.64L214.81 401.18L214.99 401.72L215.17 402.26L215.36 402.8L215.54 403.34L215.73 403.88L215.91 404.41L216.1 404.95L216.29 405.49L216.48 406.02L216.67 406.56L216.87 407.09L217.06 407.63L217.26 408.16L217.46 408.7L217.66 409.23L217.86 409.76L218.06 410.29L218.26 410.82L218.47 411.36L218.67 411.89L218.88 412.42L219.09 412.94L219.3 413.47L219.51 414L219.73 414.53L219.94 415.06L220.16 415.58L220.38 416.11L220.59 416.63L220.81 417.16L129.14 417.16L129.21 419.49L129.29 421.81L129.39 424.13L129.5 426.46L129.63 428.78L129.77 431.1L129.93 433.42L130.11 435.74L130.29 438.05L130.5 440.37L130.71 442.68L130.95 444.99L131.19 447.3L131.46 449.61L131.73 451.91L132.02 454.22L132.33 456.52L132.65 458.82L132.99 461.12L133.34 463.41L133.7 465.71L134.09 468L134.48 470.29L134.89 472.57L135.31 474.86L135.75 477.14L136.21 479.41L136.68 481.69L137.16 483.96L137.66 486.23L138.17 488.5L138.7 490.76L139.24 493.02L139.79 495.28L140.37 497.53L140.95 499.78L141.55 502.03L142.17 504.27L142.79 506.51L143.44 508.75L225.64 508.75L225.64 428.3L226.09 429.23L226.55 430.15L227.01 431.07L227.48 431.99L227.95 432.9L228.43 433.81L228.91 434.72L229.39 435.63L229.88 436.54L230.37 437.44L230.87 438.34L231.37 439.24L231.87 440.14L232.38 441.03L232.89 441.93L233.41 442.82L233.93 443.7L234.46 444.59L234.99 445.47L235.52 446.35L236.06 447.23L236.6 448.1L237.14 448.97L237.69 449.84L238.25 450.71L238.81 451.57L239.37 452.43L239.94 453.29L240.51 454.15L241.08 455L241.66 455.85L242.24 456.7L242.83 457.55L243.42 458.39L244.01 459.23L244.61 460.07L245.21 460.9L245.82 461.74L246.43 462.57L247.05 463.39L247.05 508.84L293.1 508.84L294.15 509.6L295.2 510.35L296.26 511.09L297.31 511.83L298.38 512.57L299.45 513.3L300.52 514.02L301.59 514.73L302.67 515.44L303.76 516.14L304.84 516.84L305.94 517.53L307.03 518.21L308.13 518.88L309.24 519.55L310.34 520.22L311.46 520.87L312.57 521.52L313.69 522.16L314.81 522.8L315.94 523.43L317.07 524.05L318.21 524.67L319.34 525.28L320.48 525.88L321.63 526.48L322.78 527.06L323.93 527.65L325.09 528.22L326.24 528.79L327.41 529.35L328.57 529.91L329.74 530.46L330.92 531L332.09 531.53L333.27 532.06L334.45 532.58L335.64 533.09L336.83 533.6L338.02 534.1L337.32 536.07L336.61 538.03L335.88 539.98L335.15 541.93L334.4 543.88L333.64 545.82L332.87 547.76L332.09 549.69L331.29 551.61L330.48 553.53L329.66 555.45L328.83 557.36L327.99 559.27L327.14 561.17L326.27 563.06L325.39 564.95L324.5 566.83L323.6 568.71L322.69 570.58L321.77 572.45L320.83 574.31L319.89 576.16L318.93 578.01L317.96 579.85L316.98 581.69L315.99 583.52L314.98 585.35L313.97 587.17L312.94 588.98L311.9 590.79L310.85 592.59L309.79 594.38L308.72 596.17L307.64 597.95L306.55 599.72L305.44 601.49L304.33 603.25L303.2 605.01L302.06 606.75L300.91 608.5L303.57 607.62L306.22 606.72L308.86 605.78L311.48 604.81L314.08 603.8L316.67 602.76L319.25 601.69L321.81 600.58L324.35 599.44L326.87 598.27L329.38 597.06L331.88 595.83L334.35 594.56L336.81 593.25L339.25 591.92L341.67 590.56L344.08 589.16L346.46 587.73L348.83 586.27L351.17 584.79L353.5 583.27L355.8 581.72L358.09 580.14L360.36 578.53L362.6 576.89L364.82 575.22L367.03 573.52L369.21 571.79L371.36 570.03L373.5 568.24L375.61 566.43L377.7 564.59L379.77 562.72L381.81 560.82L383.83 558.89L385.82 556.93L387.79 554.95L389.74 552.94L391.66 550.9L393.55 548.84L394.22 548.93L394.89 549.01L395.56 549.09L396.23 549.17L396.89 549.25L397.56 549.33L398.23 549.4L398.9 549.47L399.57 549.54L400.24 549.61L400.91 549.68L401.58 549.74L402.25 549.8L402.92 549.86L403.59 549.92L404.26 549.97L404.93 550.03L405.6 550.08L406.28 550.13L406.95 550.17L407.62 550.22L408.29 550.26L408.96 550.3L409.63 550.34L410.31 550.38L410.98 550.41L411.65 550.45L412.32 550.48L413 550.5L413.67 550.53L414.34 550.56L415.01 550.58L415.69 550.6L416.36 550.62L417.03 550.63L417.7 550.65L418.38 550.66L419.05 550.67L419.72 550.68L420.4 550.68L417.58 554.2L414.7 557.66L411.76 561.06L408.76 564.39L405.7 567.66L402.58 570.87L399.41 574.01L396.18 577.09L392.89 580.1L389.55 583.05L386.16 585.93L382.72 588.74L379.23 591.48L375.68 594.16L372.09 596.76L368.46 599.3L364.77 601.77L361.04 604.16L357.27 606.49L353.45 608.74L349.59 610.92L345.69 613.02L341.75 615.05L337.77 617.01L333.76 618.89L329.7 620.7L325.62 622.43L321.49 624.08L317.34 625.65L313.15 627.15L308.93 628.57L304.67 629.91L300.39 631.16L296.08 632.34L291.75 633.44L287.39 634.45L283 635.38L278.59 636.23L274.15 636.99L269.69 637.67L260.14 638.84L250.62 639.61L241.16 640L231.76 640L222.43 639.63L213.18 638.88L204.01 637.78L194.94 636.32L185.97 634.5L177.11 632.35L168.37 629.86L159.77 627.03L151.29 623.88L142.97 620.42L134.8 616.64L126.79 612.55L118.95 608.17L111.3 603.49L103.83 598.53L96.55 593.29L89.49 587.77L82.63 581.99L76 575.95L69.6 569.65L63.44 563.1L57.53 556.31L51.87 549.29L46.48 542.04L41.36 534.56L36.52 526.87L31.97 518.97L27.72 510.87L23.78 502.57L20.16 494.08L16.86 485.4L13.89 476.54L11.26 467.52L8.98 458.33L7.06 448.98L5.51 439.48L4.34 429.92L3.57 420.41L3.19 410.94L3.18 401.54L3.56 392.21L4.3 382.96L5.41 373.79L6.87 364.72L8.68 355.75L10.84 346.89L13.33 338.16L16.15 329.55L19.3 321.08L22.77 312.75L26.55 304.58L30.63 296.57L35.01 288.73L39.69 281.08L44.65 273.61L49.89 266.34L55.41 259.27L61.19 252.41L67.24 245.78L73.53 239.38L80.08 233.22L86.87 227.31L93.89 221.65L101.14 216.26L108.62 211.14L116.31 206.3L124.21 201.75L132.32 197.51L140.62 193.56L149.11 189.94L157.78 186.64L166.64 183.67L175.66 181.04L184.86 178.76L194.21 176.84L203.71 175.29L203.71 197.22L197.39 198.19ZM247.32 533.92L247.32 538.2L247.33 542.36L247.34 546.41L247.34 550.35L247.35 554.18L247.35 557.89L247.36 561.5L247.37 565L247.37 568.38L247.38 571.66L247.38 574.82L247.39 577.87L247.39 580.81L247.4 583.64L247.4 586.36L247.41 588.97L247.41 591.46L247.42 593.85L247.42 596.13L247.43 598.29L247.43 600.34L247.44 602.29L247.44 604.12L247.44 605.84L247.45 607.45L247.45 608.94L247.45 610.33L247.46 611.61L247.46 612.77L247.46 613.83L247.47 614.77L247.47 615.6L247.47 616.32L247.47 616.93L247.48 617.43L247.48 617.82L247.48 618.1L247.48 618.27L247.48 618.32L248.04 618.29L248.6 618.26L249.15 618.22L249.71 618.19L250.26 618.15L250.81 618.11L251.37 618.07L251.92 618.03L252.48 617.99L253.03 617.94L253.59 617.9L254.14 617.85L254.7 617.8L255.25 617.75L255.8 617.7L256.36 617.65L256.91 617.6L257.46 617.54L258.02 617.48L258.57 617.42L259.12 617.36L259.67 617.3L260.23 617.24L260.78 617.18L261.33 617.11L261.88 617.04L262.44 616.97L262.99 616.9L263.54 616.83L264.09 616.76L264.64 616.69L265.19 616.61L265.74 616.53L266.29 616.45L266.84 616.37L267.39 616.29L267.94 616.21L268.49 616.13L269.04 616.04L269.59 615.95L271.12 613.99L272.64 612.02L274.13 610.04L275.61 608.05L277.08 606.04L278.53 604.03L279.96 602L281.37 599.96L282.77 597.91L284.15 595.85L285.51 593.78L286.86 591.7L288.19 589.61L289.5 587.5L290.8 585.39L292.08 583.27L293.34 581.13L294.59 578.99L295.81 576.84L297.02 574.68L298.22 572.5L299.39 570.32L300.55 568.13L301.69 565.93L302.81 563.72L303.92 561.5L305 559.27L306.07 557.04L307.12 554.79L308.16 552.54L309.17 550.28L310.17 548L311.15 545.72L312.11 543.44L313.05 541.14L313.98 538.84L314.88 536.52L315.77 534.2L316.64 531.88L317.49 529.54L247.31 529.54L247.32 533.92ZM151.03 531.76L151.89 534.05L152.76 536.34L153.65 538.62L154.56 540.89L155.49 543.16L156.44 545.42L157.4 547.67L158.38 549.91L159.38 552.14L160.4 554.37L161.43 556.58L162.48 558.79L163.55 560.99L164.63 563.18L165.74 565.36L166.86 567.53L167.99 569.7L169.15 571.85L170.32 574L171.5 576.13L172.71 578.26L173.93 580.38L175.17 582.49L176.42 584.58L177.7 586.67L178.98 588.75L180.29 590.82L181.61 592.87L182.95 594.92L184.3 596.96L185.67 598.99L187.06 601L188.46 603.01L189.88 605L191.32 606.99L192.77 608.96L194.23 610.92L195.72 612.87L197.22 614.81L197.93 614.95L198.64 615.08L199.35 615.21L200.06 615.34L200.77 615.46L201.49 615.59L202.2 615.71L202.91 615.83L203.63 615.94L204.34 616.05L205.05 616.17L205.77 616.27L206.48 616.38L207.2 616.48L207.92 616.59L208.63 616.68L209.35 616.78L210.07 616.87L210.78 616.97L211.5 617.05L212.22 617.14L212.94 617.23L213.65 617.31L214.37 617.39L215.09 617.46L215.81 617.54L216.53 617.61L217.25 617.68L217.97 617.75L218.69 617.81L219.41 617.87L220.13 617.93L220.85 617.99L221.57 618.04L222.29 618.1L223.02 618.15L223.74 618.19L224.46 618.24L225.18 618.28L225.9 618.32L225.9 529.45L150.19 529.45L151.03 531.76ZM65.95 532.17L67.9 534.78L69.89 537.35L71.91 539.88L73.97 542.39L76.06 544.86L78.19 547.29L80.36 549.69L82.56 552.06L84.79 554.39L87.06 556.68L89.36 558.94L91.69 561.17L94.06 563.35L96.46 565.5L98.89 567.62L101.35 569.69L103.85 571.73L106.37 573.73L108.92 575.69L111.5 577.61L114.11 579.49L116.75 581.34L119.42 583.14L122.11 584.9L124.84 586.63L127.59 588.31L130.36 589.95L133.16 591.55L135.99 593.11L138.84 594.62L141.71 596.09L144.61 597.52L147.54 598.91L150.48 600.25L153.45 601.55L156.44 602.81L159.46 604.02L162.49 605.18L165.55 606.3L164.38 604.51L163.22 602.7L162.08 600.89L160.95 599.07L159.82 597.25L158.71 595.42L157.62 593.58L156.53 591.74L155.46 589.88L154.4 588.03L153.35 586.16L152.31 584.29L151.28 582.42L150.27 580.53L149.26 578.64L148.27 576.75L147.29 574.85L146.33 572.94L145.37 571.02L144.43 569.1L143.5 567.18L142.58 565.25L141.68 563.31L140.78 561.37L139.9 559.42L139.03 557.46L138.18 555.5L137.33 553.54L136.5 551.56L135.68 549.59L134.87 547.61L134.08 545.62L133.3 543.63L132.53 541.63L131.77 539.63L131.03 537.62L130.29 535.61L129.57 533.59L128.87 531.57L128.17 529.54L64.04 529.54L65.95 532.17ZM25.3 421.97L25.49 424.37L25.7 426.77L25.95 429.16L26.22 431.55L26.51 433.93L26.84 436.31L27.19 438.69L27.57 441.06L27.97 443.42L28.4 445.78L28.86 448.14L29.35 450.49L29.86 452.83L30.39 455.16L30.96 457.49L31.55 459.82L32.16 462.13L32.81 464.44L33.48 466.74L34.17 469.03L34.89 471.32L35.64 473.6L36.41 475.87L37.21 478.13L38.03 480.38L38.88 482.62L39.76 484.85L40.66 487.08L41.59 489.29L42.54 491.5L43.51 493.69L44.52 495.87L45.54 498.05L46.6 500.21L47.68 502.36L48.78 504.5L49.91 506.63L51.06 508.75L121.94 508.75L121.34 506.51L120.75 504.28L120.17 502.04L119.61 499.8L119.05 497.55L118.52 495.3L117.99 493.05L117.48 490.79L116.99 488.54L116.5 486.28L116.04 484.01L115.58 481.75L115.14 479.48L114.71 477.21L114.3 474.94L113.9 472.66L113.51 470.38L113.14 468.1L112.78 465.82L112.43 463.54L112.1 461.25L111.78 458.96L111.48 456.67L111.19 454.38L110.91 452.09L110.65 449.79L110.4 447.5L110.17 445.2L109.95 442.9L109.74 440.59L109.55 438.29L109.37 435.99L109.2 433.68L109.05 431.37L108.91 429.07L108.79 426.76L108.68 424.45L108.58 422.14L108.5 419.82L108.43 417.51L107.69 417.51L106.7 417.51L105.49 417.51L104.07 417.5L102.45 417.5L100.65 417.49L98.68 417.49L96.55 417.48L94.28 417.47L91.87 417.47L89.35 417.46L86.73 417.45L84.01 417.44L81.22 417.43L78.36 417.42L75.45 417.41L72.51 417.4L69.54 417.38L66.56 417.37L63.58 417.36L60.62 417.35L57.69 417.34L54.79 417.33L51.96 417.31L49.19 417.3L46.51 417.29L43.92 417.28L41.44 417.27L39.08 417.25L36.86 417.24L34.78 417.23L32.87 417.22L31.14 417.21L29.59 417.2L28.24 417.19L27.11 417.19L26.21 417.18L25.55 417.17L25.14 417.16L25 417.16L25.14 419.57L25.3 421.97ZM50.08 306.46L48.94 308.59L47.83 310.74L46.75 312.89L45.69 315.06L44.65 317.23L43.65 319.42L42.66 321.62L41.71 323.83L40.77 326.04L39.87 328.27L38.99 330.51L38.13 332.76L37.3 335.01L36.5 337.28L35.72 339.55L34.97 341.83L34.24 344.12L33.55 346.42L32.87 348.72L32.23 351.04L31.6 353.36L31.01 355.68L30.44 358.02L29.9 360.36L29.39 362.7L28.9 365.06L28.44 367.42L28 369.78L27.59 372.15L27.21 374.53L26.86 376.91L26.53 379.29L26.23 381.68L25.96 384.08L25.71 386.47L25.5 388.88L25.3 391.28L25.14 393.69L25 396.1L108.52 396.1L108.59 393.78L108.67 391.45L108.77 389.13L108.87 386.8L109 384.48L109.14 382.16L109.29 379.84L109.45 377.52L109.63 375.2L109.83 372.89L110.03 370.57L110.25 368.26L110.49 365.94L110.74 363.63L111 361.33L111.28 359.02L111.57 356.71L111.88 354.41L112.2 352.11L112.53 349.81L112.88 347.51L113.24 345.22L113.62 342.92L114.01 340.63L114.41 338.34L114.83 336.06L115.26 333.77L115.7 331.49L116.16 329.22L116.63 326.94L117.12 324.67L117.62 322.4L118.13 320.13L118.66 317.86L119.2 315.6L119.76 313.34L120.33 311.09L120.91 308.84L121.51 306.59L122.12 304.34L51.24 304.34L50.08 306.46ZM159.63 208.97L156.61 210.18L153.61 211.42L150.64 212.72L147.69 214.05L144.76 215.44L141.86 216.86L138.98 218.33L136.13 219.84L133.3 221.39L130.49 222.98L127.71 224.62L124.96 226.3L122.23 228.01L119.53 229.77L116.86 231.57L114.22 233.41L111.6 235.29L109.02 237.21L106.46 239.16L103.93 241.16L101.44 243.19L98.97 245.26L96.53 247.37L94.13 249.52L91.76 251.7L89.42 253.92L87.11 256.18L84.84 258.47L82.6 260.79L80.4 263.16L78.23 265.55L76.09 267.99L73.99 270.45L71.93 272.95L69.9 275.49L67.91 278.05L65.96 280.65L64.04 283.29L128.09 283.29L128.78 281.26L129.49 279.24L130.21 277.23L130.94 275.22L131.69 273.22L132.45 271.22L133.22 269.23L134 267.24L134.8 265.26L135.61 263.28L136.43 261.31L137.26 259.34L138.11 257.38L138.97 255.43L139.84 253.48L140.72 251.53L141.62 249.59L142.53 247.66L143.45 245.73L144.39 243.81L145.34 241.9L146.3 239.99L147.27 238.08L148.25 236.19L149.25 234.29L150.26 232.41L151.28 230.53L152.32 228.66L153.37 226.79L154.43 224.93L155.5 223.08L156.59 221.23L157.68 219.39L158.79 217.56L159.92 215.73L161.05 213.91L162.2 212.1L163.36 210.29L164.54 208.49L165.72 206.7L162.66 207.81L159.63 208.97Z" id="a4ZjsjXEQM"></path><path d="M637 528.84C637 211.49 637 35.18 637 -0.08C637 -0.08 578.22 77.56 513.13 77.56C495.71 77.56 356.4 77.56 338.99 77.56C271.79 77.56 225.64 -0.08 225.64 -0.08C225.64 33.17 225.64 299.16 225.64 332.41C225.54 440.8 313.33 528.74 421.71 528.84C421.83 528.84 421.95 528.84 422.06 528.84C450.72 528.84 522.37 528.84 637 528.84Z" id="aHRGYkNXF"></path><path d="M431.36 168.97C401.36 124.11 340.67 112.06 295.8 142.06C250.93 172.07 238.88 232.76 268.89 277.63C295.86 317.96 348.34 332.4 392.15 311.53C394.78 314.6 407.94 329.92 431.63 357.5C455.1 329.97 468.15 314.68 470.75 311.62C519.5 334.58 577.62 313.68 600.58 264.93C623.53 216.19 602.63 158.07 553.89 135.11C540.89 128.99 526.7 125.81 512.34 125.81C479.84 125.8 449.47 141.99 431.36 168.97Z" id="b2Ja0UPrz4"></path><path d="M361.01 176.26C332.61 176.26 309.6 199.27 309.6 227.67C309.6 256.06 332.61 279.07 361.01 279.07C389.4 279.07 412.41 256.06 412.41 227.67C412.41 199.27 389.4 176.26 361.01 176.26Z" id="f1i4UdhEcR"></path><path d="M501.72 176.26C473.33 176.26 450.31 199.27 450.31 227.67C450.31 256.06 473.33 279.07 501.72 279.07C530.11 279.07 553.13 256.06 553.13 227.67C553.13 199.27 530.11 176.26 501.72 176.26Z" id="c1jnVhputc"></path></defs><g><g><g><use xlink:href="#a4ZjsjXEQM" opacity="1" fill="#e73925" fill-opacity="1"></use><g><use xlink:href="#a4ZjsjXEQM" opacity="1" fill-opacity="0" stroke="#000000" stroke-width="1" stroke-opacity="0"></use></g></g><g><use xlink:href="#aHRGYkNXF" opacity="1" fill="#e73925" fill-opacity="1"></use><g><use xlink:href="#aHRGYkNXF" opacity="1" fill-opacity="0" stroke="#000000" stroke-width="1" stroke-opacity="0"></use></g></g><g><use xlink:href="#b2Ja0UPrz4" opacity="1" fill="#ffffff" fill-opacity="1"></use><g><use xlink:href="#b2Ja0UPrz4" opacity="1" fill-opacity="0" stroke="#000000" stroke-width="1" stroke-opacity="0"></use></g></g><g><use xlink:href="#f1i4UdhEcR" opacity="1" fill="#181716" fill-opacity="1"></use><g><use xlink:href="#f1i4UdhEcR" opacity="1" fill-opacity="0" stroke="#000000" stroke-width="1" stroke-opacity="0"></use></g></g><g><use xlink:href="#c1jnVhputc" opacity="1" fill="#181716" fill-opacity="1"></use><g><use xlink:href="#c1jnVhputc" opacity="1" fill-opacity="0" stroke="#000000" stroke-width="1" stroke-opacity="0"></use></g></g></g></g></svg>